<svg width="122" height="122" viewBox="0 0 122 122" fill="none" xmlns="http://www.w3.org/2000/svg">
<g filter="url(#filter0_d_2023_48)">
<path d="M111.912 76.5564C113.864 78.509 113.864 81.6748 111.912 83.6275L83.6275 111.912C81.6748 113.864 78.509 113.864 76.5564 111.912L6.55282 41.9082L41.9082 6.55281L111.912 76.5564Z" fill="#F6F6F6"/>
<circle cx="80.0919" cy="80.0919" r="20" transform="rotate(135 80.0919 80.0919)" fill="#801B1B"/>
<circle cx="80.0919" cy="80.0919" r="18" transform="rotate(135 80.0919 80.0919)" fill="#F6F6F6"/>
<rect x="48.2722" y="83.6274" width="8" height="12" rx="2" transform="rotate(135 48.2722 83.6274)" fill="black"/>
<rect x="88.5773" y="41.9082" width="8" height="12" rx="2" transform="rotate(135 88.5773 41.9082)" fill="black"/>
<rect x="21.4021" y="56.7574" width="8" height="12" rx="2" transform="rotate(135 21.4021 56.7574)" fill="black"/>
<rect x="62.4143" y="15.7452" width="8" height="12" rx="2" transform="rotate(135 62.4143 15.7452)" fill="black"/>
<rect x="45.4437" y="14.3309" width="45" height="6" transform="rotate(135 45.4437 14.3309)" fill="#DBDBDB"/>
</g>
<defs>
<filter id="filter0_d_2023_48" x="2.5528" y="6.55286" width="114.823" height="114.823" filterUnits="userSpaceOnUse" color-interpolation-filters="sRGB">
<feFlood flood-opacity="0" result="BackgroundImageFix"/>
<feColorMatrix in="SourceAlpha" type="matrix" values="0 0 0 0 0 0 0 0 0 0 0 0 0 0 0 0 0 0 127 0" result="hardAlpha"/>
<feOffset dy="4"/>
<feGaussianBlur stdDeviation="2"/>
<feComposite in2="hardAlpha" operator="out"/>
<feColorMatrix type="matrix" values="0 0 0 0 0 0 0 0 0 0 0 0 0 0 0 0 0 0 0.25 0"/>
<feBlend mode="normal" in2="BackgroundImageFix" result="effect1_dropShadow_2023_48"/>
<feBlend mode="normal" in="SourceGraphic" in2="effect1_dropShadow_2023_48" result="shape"/>
</filter>
</defs>
</svg>
