<svg width="74" height="112" viewBox="0 0 74 112" fill="none" xmlns="http://www.w3.org/2000/svg">
<g filter="url(#filter0_d_2023_48)">
<path d="M62 99C62 101.761 59.7614 104 57 104H17C14.2386 104 12 101.761 12 99L12 0H62L62 99Z" fill="#F6F6F6"/>
<circle cx="37" cy="79" r="20" transform="rotate(180 37 79)" fill="#801B1B"/>
<circle cx="37" cy="79" r="18" transform="rotate(180 37 79)" fill="#F6F6F6"/>
<rect x="12" y="59" width="8" height="12" rx="2" transform="rotate(180 12 59)" fill="black"/>
<rect x="70" y="58" width="8" height="12" rx="2" transform="rotate(180 70 58)" fill="black"/>
<rect x="12" y="21" width="8" height="12" rx="2" transform="rotate(180 12 21)" fill="black"/>
<rect x="70" y="21" width="8" height="12" rx="2" transform="rotate(180 70 21)" fill="black"/>
<rect x="59" y="8" width="45" height="6" transform="rotate(180 59 8)" fill="#DBDBDB"/>
</g>
<defs>
<filter id="filter0_d_2023_48" x="0" y="0" width="74" height="112" filterUnits="userSpaceOnUse" color-interpolation-filters="sRGB">
<feFlood flood-opacity="0" result="BackgroundImageFix"/>
<feColorMatrix in="SourceAlpha" type="matrix" values="0 0 0 0 0 0 0 0 0 0 0 0 0 0 0 0 0 0 127 0" result="hardAlpha"/>
<feOffset dy="4"/>
<feGaussianBlur stdDeviation="2"/>
<feComposite in2="hardAlpha" operator="out"/>
<feColorMatrix type="matrix" values="0 0 0 0 0 0 0 0 0 0 0 0 0 0 0 0 0 0 0.25 0"/>
<feBlend mode="normal" in2="BackgroundImageFix" result="effect1_dropShadow_2023_48"/>
<feBlend mode="normal" in="SourceGraphic" in2="effect1_dropShadow_2023_48" result="shape"/>
</filter>
</defs>
</svg>
