<svg width="122" height="122" viewBox="0 0 122 122" fill="none" xmlns="http://www.w3.org/2000/svg">
<g filter="url(#filter0_d_2023_48)">
<path d="M45.4436 111.912C43.491 113.864 40.3252 113.864 38.3725 111.912L10.0883 83.6275C8.13566 81.6748 8.13566 78.509 10.0883 76.5564L80.0918 6.55282L115.447 41.9082L45.4436 111.912Z" fill="#F6F6F6"/>
<circle cx="41.9081" cy="80.0919" r="20" transform="rotate(-135 41.9081 80.0919)" fill="#801B1B"/>
<circle cx="41.9081" cy="80.0919" r="18" transform="rotate(-135 41.9081 80.0919)" fill="#F6F6F6"/>
<rect x="38.3726" y="48.2721" width="8" height="12" rx="2" transform="rotate(-135 38.3726 48.2721)" fill="black"/>
<rect x="80.0918" y="88.5773" width="8" height="12" rx="2" transform="rotate(-135 80.0918 88.5773)" fill="black"/>
<rect x="65.2426" y="21.4021" width="8" height="12" rx="2" transform="rotate(-135 65.2426 21.4021)" fill="black"/>
<rect x="106.255" y="62.4143" width="8" height="12" rx="2" transform="rotate(-135 106.255 62.4143)" fill="black"/>
<rect x="107.669" y="45.4437" width="45" height="6" transform="rotate(-135 107.669 45.4437)" fill="#DBDBDB"/>
</g>
<defs>
<filter id="filter0_d_2023_48" x="4.62384" y="6.55286" width="114.823" height="114.823" filterUnits="userSpaceOnUse" color-interpolation-filters="sRGB">
<feFlood flood-opacity="0" result="BackgroundImageFix"/>
<feColorMatrix in="SourceAlpha" type="matrix" values="0 0 0 0 0 0 0 0 0 0 0 0 0 0 0 0 0 0 127 0" result="hardAlpha"/>
<feOffset dy="4"/>
<feGaussianBlur stdDeviation="2"/>
<feComposite in2="hardAlpha" operator="out"/>
<feColorMatrix type="matrix" values="0 0 0 0 0 0 0 0 0 0 0 0 0 0 0 0 0 0 0.25 0"/>
<feBlend mode="normal" in2="BackgroundImageFix" result="effect1_dropShadow_2023_48"/>
<feBlend mode="normal" in="SourceGraphic" in2="effect1_dropShadow_2023_48" result="shape"/>
</filter>
</defs>
</svg>
