<svg width="112" height="74" viewBox="0 0 112 74" fill="none" xmlns="http://www.w3.org/2000/svg">
<g filter="url(#filter0_d_2023_48)">
<path d="M8.99994 58C6.23852 58 3.99994 55.7614 3.99994 53L3.99994 13C3.99994 10.2386 6.23852 8 8.99994 8L108 8L108 58L8.99994 58Z" fill="#F6F6F6"/>
<circle cx="28.9999" cy="33" r="20" transform="rotate(-90 28.9999 33)" fill="#801B1B"/>
<circle cx="28.9999" cy="33" r="18" transform="rotate(-90 28.9999 33)" fill="#F6F6F6"/>
<rect x="48.9999" y="8" width="8" height="12" rx="2" transform="rotate(-90 48.9999 8)" fill="black"/>
<rect x="49.9999" y="66" width="8" height="12" rx="2" transform="rotate(-90 49.9999 66)" fill="black"/>
<rect x="87" y="8" width="8" height="12" rx="2" transform="rotate(-90 87 8)" fill="black"/>
<rect x="87" y="66" width="8" height="12" rx="2" transform="rotate(-90 87 66)" fill="black"/>
<rect x="100" y="55" width="45" height="6" transform="rotate(-90 100 55)" fill="#DBDBDB"/>
</g>
<defs>
<filter id="filter0_d_2023_48" x="-6.10352e-05" y="0" width="112" height="74" filterUnits="userSpaceOnUse" color-interpolation-filters="sRGB">
<feFlood flood-opacity="0" result="BackgroundImageFix"/>
<feColorMatrix in="SourceAlpha" type="matrix" values="0 0 0 0 0 0 0 0 0 0 0 0 0 0 0 0 0 0 127 0" result="hardAlpha"/>
<feOffset dy="4"/>
<feGaussianBlur stdDeviation="2"/>
<feComposite in2="hardAlpha" operator="out"/>
<feColorMatrix type="matrix" values="0 0 0 0 0 0 0 0 0 0 0 0 0 0 0 0 0 0 0.25 0"/>
<feBlend mode="normal" in2="BackgroundImageFix" result="effect1_dropShadow_2023_48"/>
<feBlend mode="normal" in="SourceGraphic" in2="effect1_dropShadow_2023_48" result="shape"/>
</filter>
</defs>
</svg>
