<svg width="122" height="124" viewBox="0 0 122 124" fill="none" xmlns="http://www.w3.org/2000/svg">
<g filter="url(#filter0_d_2023_48)">
<path d="M76.5564 10.0883C78.509 8.13565 81.6748 8.13565 83.6275 10.0883L111.912 38.3725C113.864 40.3252 113.864 43.491 111.912 45.4436L41.9082 115.447L6.55281 80.0918L76.5564 10.0883Z" fill="#F6F6F6"/>
<circle cx="80.0919" cy="41.9081" r="20" transform="rotate(45 80.0919 41.9081)" fill="#801B1B"/>
<circle cx="80.0919" cy="41.9081" r="18" transform="rotate(45 80.0919 41.9081)" fill="#F6F6F6"/>
<rect x="83.6274" y="73.7279" width="8" height="12" rx="2" transform="rotate(45 83.6274 73.7279)" fill="black"/>
<rect x="41.9081" y="33.4227" width="8" height="12" rx="2" transform="rotate(45 41.9081 33.4227)" fill="black"/>
<rect x="56.7574" y="100.598" width="8" height="12" rx="2" transform="rotate(45 56.7574 100.598)" fill="black"/>
<rect x="15.7452" y="59.5857" width="8" height="12" rx="2" transform="rotate(45 15.7452 59.5857)" fill="black"/>
<rect x="14.331" y="76.5563" width="45" height="6" transform="rotate(45 14.331 76.5563)" fill="#DBDBDB"/>
</g>
<defs>
<filter id="filter0_d_2023_48" x="2.5528" y="8.62378" width="114.823" height="114.823" filterUnits="userSpaceOnUse" color-interpolation-filters="sRGB">
<feFlood flood-opacity="0" result="BackgroundImageFix"/>
<feColorMatrix in="SourceAlpha" type="matrix" values="0 0 0 0 0 0 0 0 0 0 0 0 0 0 0 0 0 0 127 0" result="hardAlpha"/>
<feOffset dy="4"/>
<feGaussianBlur stdDeviation="2"/>
<feComposite in2="hardAlpha" operator="out"/>
<feColorMatrix type="matrix" values="0 0 0 0 0 0 0 0 0 0 0 0 0 0 0 0 0 0 0.25 0"/>
<feBlend mode="normal" in2="BackgroundImageFix" result="effect1_dropShadow_2023_48"/>
<feBlend mode="normal" in="SourceGraphic" in2="effect1_dropShadow_2023_48" result="shape"/>
</filter>
</defs>
</svg>
