<svg width="112" height="74" viewBox="0 0 112 74" fill="none" xmlns="http://www.w3.org/2000/svg">
<g filter="url(#filter0_d_2023_48)">
<path d="M103 8C105.761 8 108 10.2386 108 13V53C108 55.7614 105.761 58 103 58L4 58V8L103 8Z" fill="#F6F6F6"/>
<circle cx="83" cy="33" r="20" transform="rotate(90 83 33)" fill="#801B1B"/>
<circle cx="83" cy="33" r="18" transform="rotate(90 83 33)" fill="#F6F6F6"/>
<rect x="63" y="58" width="8" height="12" rx="2" transform="rotate(90 63 58)" fill="black"/>
<rect x="62" width="8" height="12" rx="2" transform="rotate(90 62 0)" fill="black"/>
<rect x="25" y="58" width="8" height="12" rx="2" transform="rotate(90 25 58)" fill="black"/>
<rect x="25" width="8" height="12" rx="2" transform="rotate(90 25 0)" fill="black"/>
<rect x="12" y="11" width="45" height="6" transform="rotate(90 12 11)" fill="#DBDBDB"/>
</g>
<defs>
<filter id="filter0_d_2023_48" x="0" y="0" width="112" height="74" filterUnits="userSpaceOnUse" color-interpolation-filters="sRGB">
<feFlood flood-opacity="0" result="BackgroundImageFix"/>
<feColorMatrix in="SourceAlpha" type="matrix" values="0 0 0 0 0 0 0 0 0 0 0 0 0 0 0 0 0 0 127 0" result="hardAlpha"/>
<feOffset dy="4"/>
<feGaussianBlur stdDeviation="2"/>
<feComposite in2="hardAlpha" operator="out"/>
<feColorMatrix type="matrix" values="0 0 0 0 0 0 0 0 0 0 0 0 0 0 0 0 0 0 0.25 0"/>
<feBlend mode="normal" in2="BackgroundImageFix" result="effect1_dropShadow_2023_48"/>
<feBlend mode="normal" in="SourceGraphic" in2="effect1_dropShadow_2023_48" result="shape"/>
</filter>
</defs>
</svg>
